<svg width="272" height="47" viewBox="0 0 272 47" fill="none" xmlns="http://www.w3.org/2000/svg">
<rect x="0.5" y="0.5" width="271" height="46" rx="20.5" fill="#407597"/>
<g clip-path="url(#clip0_12724_313411)">
<path d="M38.452 27.0167V20.1487C38.452 19.5357 38.125 18.9697 37.594 18.6637L31.584 15.2297C31.3231 15.0792 31.0272 15 30.726 15C30.4248 15 30.1289 15.0792 29.868 15.2297L23.858 18.6627C23.328 18.9687 23 19.5347 23 20.1477V27.0157C23 27.6287 23.327 28.1947 23.858 28.5007L29.868 31.9347C30.129 32.0854 30.4251 32.1648 30.7265 32.1648C31.0279 32.1648 31.324 32.0854 31.585 31.9347L37.595 28.5007C38.125 28.1947 38.452 27.6287 38.453 27.0157L38.452 27.0167Z" stroke="white" stroke-width="2" stroke-miterlimit="2" stroke-linecap="round"/>
</g>
<path d="M64.9284 29.5L70.0684 16.16H66.8284L63.1484 26.42L59.4484 16.16H56.2084L61.3684 29.5H64.9284ZM72.8803 18.8C73.7203 18.8 74.4003 18.12 74.4003 17.28C74.4003 16.44 73.7203 15.78 72.8803 15.78C72.0603 15.78 71.3603 16.44 71.3603 17.28C71.3603 18.12 72.0603 18.8 72.8803 18.8ZM74.1603 29.5V19.84H71.6203V29.5H74.1603ZM81.5989 29.74C83.0989 29.74 84.6189 29.28 85.5789 28.4L84.4589 26.76C83.8389 27.36 82.6989 27.72 81.8789 27.72C80.2389 27.72 79.2589 26.7 79.0989 25.48H86.2789V24.92C86.2789 21.76 84.3189 19.6 81.4389 19.6C78.4989 19.6 76.4389 21.86 76.4389 24.66C76.4389 27.76 78.6589 29.74 81.5989 29.74ZM83.8189 23.76H79.0589C79.1789 22.8 79.8589 21.62 81.4389 21.62C83.1189 21.62 83.7589 22.84 83.8189 23.76ZM99.6736 29.5L102.614 19.84H99.9736L98.1736 26.34L96.0536 19.84H93.7936L91.6736 26.34L89.8736 19.84H87.2336L90.1736 29.5H92.8936L94.9336 22.92L96.9736 29.5H99.6736ZM114.222 29.74C117.422 29.74 119.342 27.42 119.342 24.66C119.342 21.92 117.422 19.6 114.222 19.6C111.042 19.6 109.122 21.92 109.122 24.66C109.122 27.42 111.042 29.74 114.222 29.74ZM114.222 27.48C112.642 27.48 111.762 26.18 111.762 24.66C111.762 23.16 112.642 21.86 114.222 21.86C115.802 21.86 116.702 23.16 116.702 24.66C116.702 26.18 115.802 27.48 114.222 27.48ZM130.666 29.5V22.68C130.666 20.8 129.646 19.6 127.526 19.6C125.946 19.6 124.766 20.36 124.146 21.1V19.84H121.606V29.5H124.146V23C124.566 22.42 125.346 21.86 126.346 21.86C127.426 21.86 128.126 22.32 128.126 23.66V29.5H130.666ZM151.565 29.5L146.425 16.16H142.865L137.705 29.5H140.945L141.785 27.24H147.505L148.325 29.5H151.565ZM146.725 24.74H142.565L144.645 19L146.725 24.74ZM155.657 29.5V23.12C156.077 22.5 157.197 22.02 158.037 22.02C158.317 22.02 158.557 22.04 158.737 22.08V19.6C157.537 19.6 156.337 20.3 155.657 21.16V19.84H153.117V29.5H155.657ZM163.944 29.74C165.004 29.74 165.684 29.46 166.064 29.12L165.524 27.2C165.384 27.34 165.024 27.48 164.644 27.48C164.084 27.48 163.764 27.02 163.764 26.42V22.06H165.724V19.84H163.764V17.2H161.204V19.84H159.604V22.06H161.204V27.1C161.204 28.82 162.164 29.74 163.944 29.74ZM169.102 18.8C169.942 18.8 170.622 18.12 170.622 17.28C170.622 16.44 169.942 15.78 169.102 15.78C168.282 15.78 167.582 16.44 167.582 17.28C167.582 18.12 168.282 18.8 169.102 18.8ZM170.382 29.5V19.84H167.842V29.5H170.382ZM176.401 29.5V22.06H178.361V19.84H176.401V19.32C176.401 18.42 176.901 17.96 177.601 17.96C178.061 17.96 178.401 18.1 178.661 18.36L179.621 16.86C179.001 16.2 178.021 15.96 177.101 15.96C175.161 15.96 173.841 17.26 173.841 19.32V19.84H172.241V22.06H173.841V29.5H176.401ZM188.544 29.5V23.26C188.544 20.48 186.524 19.6 184.324 19.6C182.804 19.6 181.284 20.08 180.104 21.12L181.064 22.82C181.884 22.06 182.844 21.68 183.884 21.68C185.164 21.68 186.004 22.32 186.004 23.3V24.6C185.364 23.84 184.224 23.42 182.944 23.42C181.404 23.42 179.584 24.28 179.584 26.54C179.584 28.7 181.404 29.74 182.944 29.74C184.204 29.74 185.344 29.28 186.004 28.5V29.5H188.544ZM183.964 28.02C182.964 28.02 182.144 27.5 182.144 26.6C182.144 25.66 182.964 25.14 183.964 25.14C184.784 25.14 185.584 25.42 186.004 25.98V27.18C185.584 27.74 184.784 28.02 183.964 28.02ZM195.943 29.74C197.923 29.74 199.123 28.88 199.763 27.98L198.103 26.44C197.643 27.08 196.943 27.48 196.063 27.48C194.523 27.48 193.443 26.34 193.443 24.66C193.443 22.98 194.523 21.86 196.063 21.86C196.943 21.86 197.643 22.22 198.103 22.9L199.763 21.34C199.123 20.46 197.923 19.6 195.943 19.6C192.963 19.6 190.823 21.7 190.823 24.66C190.823 27.64 192.963 29.74 195.943 29.74ZM205.044 29.74C206.104 29.74 206.784 29.46 207.164 29.12L206.624 27.2C206.484 27.34 206.124 27.48 205.744 27.48C205.184 27.48 204.864 27.02 204.864 26.42V22.06H206.824V19.84H204.864V17.2H202.304V19.84H200.704V22.06H202.304V27.1C202.304 28.82 203.264 29.74 205.044 29.74ZM221.001 29.5V16.16H218.141V21.4H211.841V16.16H209.001V29.5H211.841V23.9H218.141V29.5H221.001ZM230.03 29.74C234.09 29.74 236.05 27.48 236.05 24.16V16.16H233.15V24.08C233.15 25.94 232.09 27.22 230.03 27.22C227.97 27.22 226.89 25.94 226.89 24.08V16.16H224.01V24.18C224.01 27.46 225.97 29.74 230.03 29.74ZM246.298 29.5C248.838 29.5 250.178 27.9 250.178 25.9C250.178 24.22 249.038 22.84 247.618 22.62C248.878 22.36 249.918 21.24 249.918 19.56C249.918 17.78 248.618 16.16 246.078 16.16H239.058V29.5H246.298ZM245.458 21.5H241.898V18.6H245.458C246.418 18.6 247.018 19.22 247.018 20.06C247.018 20.9 246.418 21.5 245.458 21.5ZM245.558 27.04H241.898V23.94H245.558C246.678 23.94 247.278 24.66 247.278 25.5C247.278 26.46 246.638 27.04 245.558 27.04Z" fill="white"/>
<rect x="0.5" y="0.5" width="271" height="46" rx="20.5" stroke="#E7E8EC"/>
<defs>
<clipPath id="clip0_12724_313411">
<rect width="28" height="28" fill="white" transform="translate(17 9.5)"/>
</clipPath>
</defs>
</svg>
